<svg xmlns="http://www.w3.org/2000/svg" id="Layer_1" data-name="Layer 1" viewBox="0 0 512 512"><title>chat-girl-screen</title><g id="chat-girl-screen"><path id="label" d="M256,0C114.61,0,0,114.63,0,256S114.61,512,256,512,512,397.37,512,256,397.37,0,256,0Z" fill="#84d4f0"></path><g id="chat-girl-screen-2" data-name="chat-girl-screen"><g id="screen-pointer"><rect x="220.09" y="325.76" width="74.34" height="49.18" fill="#fff"></rect><g id="screen"><path d="M112.64,302.08V153a15.92,15.92,0,0,1,15.92-15.92H383.43A15.92,15.92,0,0,1,399.36,153v149.1" fill="#fc6e51"></path><path d="M399.36,302.08V320.6a15.92,15.92,0,0,1-15.93,15.91H128.56a15.91,15.91,0,0,1-15.92-15.91V302.08" fill="#fff"></path><path d="M383.43,341.63H128.56a21.05,21.05,0,0,1-21-21V153a21.06,21.06,0,0,1,21-21H383.43a21.06,21.06,0,0,1,21,21V320.6a21.06,21.06,0,0,1-21,21ZM128.56,142.18a10.81,10.81,0,0,0-10.8,10.8V320.6a10.81,10.81,0,0,0,10.8,10.79H383.43a10.81,10.81,0,0,0,10.81-10.79V153a10.82,10.82,0,0,0-10.81-10.8Z" fill="#2c4c76"></path><path d="M393.13,305.26H118.86a5.12,5.12,0,1,1,0-10.24H393.13a5.12,5.12,0,1,1,0,10.24Z" fill="#2c4c76"></path><path d="M220.09,380.06a5.12,5.12,0,0,1-5.12-5.12V341.72a5.12,5.12,0,0,1,10.24,0v33.22a5.12,5.12,0,0,1-5.12,5.12Z" fill="#2c4c76"></path><path d="M294.43,380.06a5.12,5.12,0,0,1-5.12-5.12V341.72a5.12,5.12,0,0,1,10.24,0v33.22a5.12,5.12,0,0,1-5.12,5.12Z" fill="#2c4c76"></path><path d="M305.87,380.06H206.14a5.12,5.12,0,1,1,0-10.24h99.74a5.12,5.12,0,0,1,0,10.24Z" fill="#2c4c76"></path></g></g><path d="M238,274.64C206,267.58,187.65,262.92,203.93,205c18.3-65.19,81.36-38.1,81.36-38.1s32.82,12.35,28.48,62.16c0,0-2.8,36-35,44.26" fill="#fff"></path><path d="M300.49,215.92c0,24.81-20.11,57.36-44.92,57.36-23.27,0-42.39-28.61-44.69-52.63" fill="#fff"></path><path d="M212.64,221.63s39,6.51,70.64-28.41" fill="#fff"></path><path d="M206,217.44s28.6-6.65,45.4-22.35" fill="#fff"></path><path d="M283.29,193.22s2.48,17.94,15.56,23.06" fill="#fff"></path><path d="M237.7,281.9a4.51,4.51,0,0,1-1-.11c-16.69-3.67-31.09-7.7-38.45-20-7.11-11.85-6.72-29.77,1.23-58.11,5.73-20.41,16.28-34.41,31.36-41.61,25.76-12.32,55,0,56.26.52s35.83,14.11,31.25,66.8c-.12,1.7-3.61,43.13-38.61,52.07a4.61,4.61,0,1,1-2.28-8.93c28.66-7.32,31.69-43.52,31.72-43.88,4-45.51-24.33-57.05-25.54-57.52-.43-.18-26.92-11.25-48.88-.72-12.54,6-21.42,18-26.4,35.76-7.12,25.35-7.82,41.51-2.2,50.88,5.48,9.13,17.45,12.39,32.52,15.7a4.61,4.61,0,0,1-1,9.11Z" fill="#2c4c76"></path><path d="M255.57,277.89c-25.84,0-46.71-29.93-49.28-56.79a4.61,4.61,0,1,1,9.17-.88c2.14,22.41,20.13,48.46,40.11,48.46,21.33,0,40.31-29.5,40.31-52.75a4.61,4.61,0,0,1,9.21,0c0,28.07-22.09,62-49.52,62Z" fill="#2c4c76"></path><path d="M258.56,256.07h-6a4.61,4.61,0,1,1,0-9.21h6a4.61,4.61,0,1,1,0,9.21Z" fill="#2c4c76"></path><path d="M220.58,226.74a56.66,56.66,0,0,1-8.69-.57,4.61,4.61,0,0,1,1.51-9.09h0c1.49.24,37,5.55,66.48-27a4.61,4.61,0,1,1,6.83,6.2c-24.19,26.66-52.23,30.42-66.13,30.42Z" fill="#2c4c76"></path><path d="M276,283.65a4.61,4.61,0,0,1-4.61-4.61V266.22a4.61,4.61,0,1,1,9.22,0V279a4.61,4.61,0,0,1-4.61,4.61Z" fill="#2c4c76"></path><path d="M240.22,283.65a4.61,4.61,0,0,1-4.6-4.61v-8.82a4.61,4.61,0,1,1,9.21,0V279a4.61,4.61,0,0,1-4.61,4.61Z" fill="#2c4c76"></path><path d="M206,222a4.61,4.61,0,0,1-1-9.1c.27-.07,27.62-6.58,43.31-21.24a4.61,4.61,0,0,1,6.29,6.74c-17.51,16.35-46.29,23.19-47.51,23.47a4.6,4.6,0,0,1-1,.12Z" fill="#2c4c76"></path><path d="M298.85,220.89a4.53,4.53,0,0,1-1.68-.32c-15.42-6-18.33-25.88-18.44-26.72a4.6,4.6,0,0,1,9.12-1.27h0c0,.15,2.32,15.36,12.68,19.41a4.61,4.61,0,0,1-1.68,8.9Z" fill="#2c4c76"></path><polygon points="353.07 208.09 383.79 208.09 383.79 166.46 322.35 166.46 322.35 208.09 339.2 208.09 339.2 219.97 353.07 208.09" fill="#fff"></polygon><polygon points="346.24 197.97 332.59 197.97 332.59 192.85 346.24 192.85 346.24 197.97 346.24 197.97" fill="#2c4c76"></polygon><polygon points="373.55 190.01 332.59 190.01 332.59 184.89 373.55 184.89 373.55 190.01 373.55 190.01" fill="#2c4c76"></polygon><polygon points="373.55 180.9 332.59 180.9 332.59 175.78 373.55 175.78 373.55 180.9 373.55 180.9" fill="#2c4c76"></polygon></g></g></svg>