<svg xmlns="http://www.w3.org/2000/svg" id="Layer_1" data-name="Layer 1" viewBox="0 0 512 512"><defs><style>.cls-1{fill:#141f38;}</style></defs><title>notebook-connection-glyph</title><path class="cls-1" d="M26.26,137.85V354.46H193.05l26.26,26.26h73.39l26.26-26.26H485.74V137.85a72.29,72.29,0,0,0-72.21-72.21H98.46A72.29,72.29,0,0,0,26.26,137.85Zm347.9,59.08a32.82,32.82,0,1,1-32.82,32.82A32.86,32.86,0,0,1,374.15,196.92Zm-78.77,19.69a13.13,13.13,0,1,1-13.13,13.13A13.13,13.13,0,0,1,295.38,216.62Zm-39.38,0a13.13,13.13,0,1,1-13.13,13.13A13.13,13.13,0,0,1,256,216.62Zm-39.38,0a13.13,13.13,0,1,1-13.13,13.13A13.13,13.13,0,0,1,216.62,216.62Zm-78.77-19.69A32.82,32.82,0,1,1,105,229.74,32.86,32.86,0,0,1,137.85,196.92Zm216.62,32.82a19.69,19.69,0,1,1,19.69,19.69A19.71,19.71,0,0,1,354.46,229.74Zm-236.31,0a19.69,19.69,0,1,1,19.69,19.69A19.71,19.71,0,0,1,118.15,229.74ZM324.33,367.59H512v13.13a65.71,65.71,0,0,1-65.64,65.64H65.64A65.71,65.71,0,0,1,0,380.72V367.59H187.67l26.26,26.26h84.15Z"></path></svg>